<svg width="350" height="71" viewBox="0 0 350 71" fill="none" xmlns="http://www.w3.org/2000/svg">
<path d="M5.46044 45H8.74102C10.0943 45 11.2015 46.108 11.2015 47.4623V50.7453C11.2015 52.0996 10.0943 53.2076 8.74102 53.2076H5.46044C4.1072 53.2076 3 52.0996 3 50.7453V47.4623C3 46.108 4.1072 45 5.46044 45Z" fill="#1A90FF"/>
<path d="M44.256 32.243H37.371V25.868C37.371 25.188 37.269 24.763 37.065 24.593C36.895 24.389 36.47 24.287 35.79 24.287H25.794C25.114 24.287 24.672 24.389 24.468 24.593C24.298 24.763 24.213 25.188 24.213 25.868V48.41C24.213 49.09 24.298 49.532 24.468 49.736C24.672 49.906 25.114 49.991 25.794 49.991H35.79C36.47 49.991 36.895 49.906 37.065 49.736C37.269 49.532 37.371 49.09 37.371 48.41V42.035H44.256V48.971C44.256 51.657 42.913 53 40.227 53H21.357C18.671 53 17.328 51.657 17.328 48.971V25.307C17.328 22.621 18.671 21.278 21.357 21.278H40.227C42.913 21.278 44.256 22.621 44.256 25.307V32.243ZM69.4022 48.41V32.855C69.4022 32.209 69.3002 31.784 69.0962 31.58C68.9262 31.376 68.5012 31.274 67.8212 31.274H58.8962C58.2502 31.274 57.8252 31.376 57.6212 31.58C57.4172 31.784 57.3152 32.209 57.3152 32.855V48.41C57.3152 49.09 57.4172 49.532 57.6212 49.736C57.8252 49.906 58.2502 49.991 58.8962 49.991H67.8212C68.5012 49.991 68.9262 49.906 69.0962 49.736C69.3002 49.532 69.4022 49.09 69.4022 48.41ZM54.8162 28.265H71.9012C74.5872 28.265 75.9302 29.608 75.9302 32.294V48.971C75.9302 51.657 74.5872 53 71.9012 53H54.8162C52.1302 53 50.7872 51.657 50.7872 48.971V32.294C50.7872 29.608 52.1302 28.265 54.8162 28.265ZM91.4199 49.991H99.8859C100.532 49.991 100.991 49.872 101.263 49.634C101.535 49.362 101.671 48.92 101.671 48.308V32.957C101.671 32.345 101.535 31.92 101.263 31.682C100.991 31.41 100.532 31.274 99.8859 31.274H91.4199C90.7399 31.274 90.2979 31.376 90.0939 31.58C89.9239 31.784 89.8389 32.209 89.8389 32.855V48.41C89.8389 49.09 89.9239 49.532 90.0939 49.736C90.2979 49.906 90.7399 49.991 91.4199 49.991ZM101.671 18.881H108.25V53H101.671V51.419C101.263 52.473 100.311 53 98.8149 53H87.2889C84.6029 53 83.2599 51.657 83.2599 48.971V32.294C83.2599 29.608 84.6029 28.265 87.2889 28.265H98.8149C100.311 28.265 101.263 28.792 101.671 29.846V18.881ZM122.561 38.822H135.056V32.855C135.056 32.209 134.954 31.784 134.75 31.58C134.546 31.376 134.121 31.274 133.475 31.274H124.142C123.462 31.274 123.02 31.376 122.816 31.58C122.646 31.784 122.561 32.209 122.561 32.855V38.822ZM120.011 28.265H137.453C140.139 28.265 141.482 29.608 141.482 32.294V41.831H122.561V48.41C122.561 49.09 122.646 49.532 122.816 49.736C123.02 49.906 123.462 49.991 124.142 49.991H133.373C134.019 49.991 134.444 49.906 134.648 49.736C134.852 49.532 134.954 49.09 134.954 48.41V45.605H141.38V48.971C141.38 51.657 140.037 53 137.351 53H120.011C117.325 53 115.982 51.657 115.982 48.971V32.294C115.982 29.608 117.325 28.265 120.011 28.265ZM160.034 28.214H164.471V31.529H158.861C156.515 31.529 155.342 32.804 155.342 35.354V53H148.763V28.265H155.342V31.325C155.988 29.251 157.552 28.214 160.034 28.214ZM185.405 48.461V43.769C185.405 43.123 185.303 42.698 185.099 42.494C184.895 42.29 184.47 42.188 183.824 42.188H172.349C169.663 42.188 168.32 40.845 168.32 38.159V32.294C168.32 29.608 169.663 28.265 172.349 28.265H187.7C190.386 28.265 191.729 29.608 191.729 32.294V35.405H185.303V32.804C185.303 32.124 185.201 31.699 184.997 31.529C184.793 31.325 184.368 31.223 183.722 31.223H176.48C175.834 31.223 175.409 31.325 175.205 31.529C175.001 31.699 174.899 32.124 174.899 32.804V37.598C174.899 38.278 175.001 38.72 175.205 38.924C175.409 39.094 175.834 39.179 176.48 39.179H187.904C190.59 39.179 191.933 40.522 191.933 43.208V48.971C191.933 51.657 190.59 53 187.904 53H172.502C169.816 53 168.473 51.657 168.473 48.971V45.86H174.899V48.461C174.899 49.107 175.001 49.532 175.205 49.736C175.409 49.94 175.834 50.042 176.48 50.042H183.824C184.47 50.042 184.895 49.94 185.099 49.736C185.303 49.532 185.405 49.107 185.405 48.461Z" fill="white"/>
<path d="M199.624 21.278H222.931C225.617 21.278 226.96 22.621 226.96 25.307V34.13C226.96 36.034 226.11 37.037 224.41 37.139C226.11 37.343 226.96 38.329 226.96 40.097V48.971C226.96 51.657 225.617 53 222.931 53H199.624V21.278ZM220.33 48.563V40.199C220.33 39.553 220.228 39.128 220.024 38.924C219.854 38.72 219.429 38.618 218.749 38.618H206.458V49.991H218.647C219.293 49.991 219.735 49.906 219.973 49.736C220.211 49.532 220.33 49.141 220.33 48.563ZM220.33 34.028V25.868C220.33 25.188 220.228 24.763 220.024 24.593C219.854 24.389 219.429 24.287 218.749 24.287H206.458V35.609H218.749C219.429 35.609 219.854 35.524 220.024 35.354C220.228 35.15 220.33 34.708 220.33 34.028ZM253.331 48.41V32.855C253.331 32.209 253.229 31.784 253.025 31.58C252.855 31.376 252.43 31.274 251.75 31.274H242.825C242.179 31.274 241.754 31.376 241.55 31.58C241.346 31.784 241.244 32.209 241.244 32.855V48.41C241.244 49.09 241.346 49.532 241.55 49.736C241.754 49.906 242.179 49.991 242.825 49.991H251.75C252.43 49.991 252.855 49.906 253.025 49.736C253.229 49.532 253.331 49.09 253.331 48.41ZM238.745 28.265H255.83C258.516 28.265 259.859 29.608 259.859 32.294V48.971C259.859 51.657 258.516 53 255.83 53H238.745C236.059 53 234.716 51.657 234.716 48.971V32.294C234.716 29.608 236.059 28.265 238.745 28.265ZM275.349 49.991H283.815C284.461 49.991 284.92 49.872 285.192 49.634C285.464 49.362 285.6 48.92 285.6 48.308V32.957C285.6 32.345 285.464 31.92 285.192 31.682C284.92 31.41 284.461 31.274 283.815 31.274H275.349C274.669 31.274 274.227 31.376 274.023 31.58C273.853 31.784 273.768 32.209 273.768 32.855V48.41C273.768 49.09 273.853 49.532 274.023 49.736C274.227 49.906 274.669 49.991 275.349 49.991ZM285.6 28.265H292.179V53H285.6V51.419C285.192 52.473 284.24 53 282.744 53H271.218C268.532 53 267.189 51.657 267.189 48.971V32.294C267.189 29.608 268.532 28.265 271.218 28.265H282.744C284.24 28.265 285.192 28.792 285.6 29.846V28.265ZM311.589 28.214H316.026V31.529H310.416C308.07 31.529 306.897 32.804 306.897 35.354V53H300.318V28.265H306.897V31.325C307.543 29.251 309.107 28.214 311.589 28.214ZM328.291 49.991H336.757C337.403 49.991 337.862 49.872 338.134 49.634C338.406 49.362 338.542 48.92 338.542 48.308V32.957C338.542 32.345 338.406 31.92 338.134 31.682C337.862 31.41 337.403 31.274 336.757 31.274H328.291C327.611 31.274 327.169 31.376 326.965 31.58C326.795 31.784 326.71 32.209 326.71 32.855V48.41C326.71 49.09 326.795 49.532 326.965 49.736C327.169 49.906 327.611 49.991 328.291 49.991ZM338.542 18.881H345.121V53H338.542V51.419C338.134 52.473 337.182 53 335.686 53H324.16C321.474 53 320.131 51.657 320.131 48.971V32.294C320.131 29.608 321.474 28.265 324.16 28.265H335.686C337.182 28.265 338.134 28.792 338.542 29.846V18.881Z" fill="#1890FF"/>
</svg>
