<svg width="62" height="33" viewBox="0 0 62 33" fill="none" xmlns="http://www.w3.org/2000/svg">
<path d="M27.256 11.2431H20.371V4.86808C20.371 4.18808 20.269 3.76308 20.065 3.59308C19.895 3.38908 19.47 3.28708 18.79 3.28708H8.794C8.114 3.28708 7.672 3.38908 7.468 3.59308C7.298 3.76308 7.213 4.18808 7.213 4.86808V27.4101C7.213 28.0901 7.298 28.5321 7.468 28.7361C7.672 28.9061 8.114 28.9911 8.794 28.9911H18.79C19.47 28.9911 19.895 28.9061 20.065 28.7361C20.269 28.5321 20.371 28.0901 20.371 27.4101V21.0351H27.256V27.9711C27.256 30.6571 25.913 32.0001 23.227 32.0001H4.357C1.671 32.0001 0.328003 30.6571 0.328003 27.9711V4.30708C0.328003 1.62108 1.671 0.278076 4.357 0.278076H23.227C25.913 0.278076 27.256 1.62108 27.256 4.30708V11.2431Z" fill="white"/>
<path d="M34 0.278076H57.307C59.993 0.278076 61.336 1.62108 61.336 4.30708V13.1301C61.336 15.0341 60.486 16.0371 58.786 16.1391C60.486 16.3431 61.336 17.3291 61.336 19.0971V27.9711C61.336 30.6571 59.993 32.0001 57.307 32.0001H34V0.278076ZM54.706 27.5631V19.1991C54.706 18.5531 54.604 18.1281 54.4 17.9241C54.23 17.7201 53.805 17.6181 53.125 17.6181H40.834V28.9911H53.023C53.669 28.9911 54.111 28.9061 54.349 28.7361C54.587 28.5321 54.706 28.1411 54.706 27.5631ZM54.706 13.0281V4.86808C54.706 4.18808 54.604 3.76308 54.4 3.59308C54.23 3.38908 53.805 3.28708 53.125 3.28708H40.834V14.6091H53.125C53.805 14.6091 54.23 14.5241 54.4 14.3541C54.604 14.1501 54.706 13.7081 54.706 13.0281Z" fill="#1890FF"/>
</svg>
